<svg xmlns="http://www.w3.org/2000/svg" width="169.288" height="145" viewBox="0 0 169.288 145"><defs><style>.a{fill:#69d5f7;}.b{fill:#2971ff;}.c{fill:#a1c0ff;}.d{fill:none;}.e{fill:#fff;}</style></defs><g transform="translate(-164.3 -37.25)"><rect class="a" width="99.58" height="23.207" rx="10.03" transform="translate(276.779 60.475) rotate(180)"/><rect class="b" width="125.369" height="124.479" transform="translate(164.3 53.28)"/><path class="a" d="M263,88.333,275.84,75.5a1.038,1.038,0,1,0-1.465-1.465L261.537,86.877a46.764,46.764,0,0,0-64.538,0L184.144,74.039a1.038,1.038,0,0,0-1.465,1.465l12.838,12.829a46.755,46.755,0,0,0-.209,64.782l-12.629,12.62a1.038,1.038,0,1,0,1.465,1.465l12.62-12.62a46.764,46.764,0,0,0,64.992,0l12.62,12.62a1.047,1.047,0,0,0,.733.305,1.029,1.029,0,0,0,.732-.305,1.046,1.046,0,0,0,0-1.465l-12.62-12.62A46.764,46.764,0,0,0,263,88.333ZM229.26,76.019a44.61,44.61,0,0,1,30.812,12.323l-9.227,9.227a31.528,31.528,0,0,0-43.171,0l-9.227-9.227A44.619,44.619,0,0,1,229.26,76.019Zm0,58.852A14.251,14.251,0,1,1,243.51,120.62,14.251,14.251,0,0,1,229.26,134.87Zm10.771-26.478a16.213,16.213,0,0,0-21.533,0l-9.358-9.358a29.452,29.452,0,0,1,40.24,0Zm-23,1.456a16.23,16.23,0,0,0,0,21.542l-9.358,9.349a29.452,29.452,0,0,1,0-40.24Zm1.465,23a16.213,16.213,0,0,0,21.533,0l9.349,9.358a29.452,29.452,0,0,1-40.24,0Zm22.989-1.456a16.23,16.23,0,0,0,0-21.542l9.358-9.349a29.452,29.452,0,0,1,0,40.24Zm-57.038-10.553A44.671,44.671,0,0,1,196.973,89.8l9.236,9.236a31.528,31.528,0,0,0,0,43.171l-9.445,9.445A44.671,44.671,0,0,1,184.449,120.838Zm44.81,44.81a44.636,44.636,0,0,1-31.031-12.533l9.445-9.445a31.528,31.528,0,0,0,43.171,0l9.445,9.445a44.636,44.636,0,0,1-31.031,12.533ZM252.31,142.2a31.51,31.51,0,0,0,0-43.171l9.236-9.236a44.714,44.714,0,0,1,.209,61.852Z" transform="translate(-2.306 -5.55)"/><circle class="a" cx="1.125" cy="1.125" r="1.125" transform="translate(172.341 61.347)"/><path class="c" d="M297.305,67.13a1.125,1.125,0,1,0-1.125-1.125A1.125,1.125,0,0,0,297.305,67.13Z" transform="translate(-17.575 -3.533)"/><circle class="a" cx="1.125" cy="1.125" r="1.125" transform="translate(172.341 167.432)"/><circle class="a" cx="1.125" cy="1.125" r="1.125" transform="translate(278.649 167.432)"/><rect class="a" width="61.808" height="61.808" rx="30.904" transform="translate(271.78 37.25)"/><rect class="b" width="7.718" height="6.279" transform="translate(184.115 43.416)"/><rect class="b" width="4.448" height="5.651" transform="translate(185.746 40.861)"/><rect class="b" width="2.66" height="7.718" transform="translate(215.879 41.968)"/><rect class="b" width="2.66" height="7.718" transform="translate(220.377 41.968)"/><rect class="b" width="7.963" height="7.963" rx="3.981" transform="translate(262.029 41.724)"/><rect class="b" width="7.963" height="7.963" rx="3.981" transform="translate(251.085 41.733)"/><rect class="b" width="8.983" height="4.491" transform="translate(280.263 182.25) rotate(180)"/><rect class="b" width="8.983" height="4.491" transform="translate(182.153 182.25) rotate(180)"/><rect class="d" width="42.839" height="42.839" transform="translate(282.359 47.384)"/><path class="e" d="M315.979,60.89v1.522h-3.731a12.228,12.228,0,0,0-3.357,6.279H300.56v4.9h8.332a12.228,12.228,0,0,0,3.357,6.279h3.74V81.4h2.844V60.89Z" transform="translate(-18.196 -2.914)"/><path class="b" d="M345.04,68.694h-8.332a12.237,12.237,0,0,0-3.331-6.218h-3.7V60.91H326.82V81.382h2.853V79.817h3.7a12.237,12.237,0,0,0,3.331-6.218h8.332Z" transform="translate(-21.74 -2.917)"/></g></svg>