<svg xmlns="http://www.w3.org/2000/svg" width="24" height="23.996" viewBox="0 0 24 23.996"><defs><style>.a{fill:#091440;}</style></defs><g transform="translate(0 0)"><path class="a" d="M12,0a12,12,0,1,0,0,24q.542,0,1.08-.048c.333-.03.664-.076.991-.133l.126-.022A12,12,0,0,0,12,0Zm-.964,23.154h-.028c-.311-.028-.62-.069-.926-.122l-.052-.008q-.449-.08-.889-.2l-.071-.018c-.286-.078-.569-.168-.848-.268l-.087-.03c-.273-.1-.542-.213-.806-.335l-.1-.044c-.259-.12-.513-.255-.763-.4l-.106-.06q-.368-.215-.72-.459l-.107-.074c-.231-.164-.456-.338-.676-.52l-.06-.053.736.646c2.656,1.8-.6,1.981,7.431,1.978,2.429,0,2.133-.073,5.234-1.519l1-1.105-.053.044q-.335.28-.689.53l-.094.064q-.357.248-.731.467l-.094.053c-.253.144-.51.28-.773.4l-.091.04c-.266.123-.537.236-.812.337l-.08.029c-.28.1-.564.191-.852.269l-.069.017c-.294.078-.59.144-.89.2l-.052.008c-.306.054-.616.1-.927.123h-.028c-.32.028-.64.042-.964.042s-.647-.012-.966-.04ZM20,19.827V17.2A5.206,5.206,0,0,0,14.8,12H9.2A5.206,5.206,0,0,0,4,17.2v2.63a11.2,11.2,0,1,1,16,0Zm0,0"/><path class="a" d="M164.009,64a4.009,4.009,0,1,0,4.009,4.009A4.009,4.009,0,0,0,164.009,64Zm0,7.217h0Q164.006,73.872,164.009,71.217Z" transform="translate(-152.008 -60.793)"/></g></svg>