<?xml version="1.0" encoding="UTF-8" standalone="no"?>
<svg
   xmlns:dc="http://purl.org/dc/elements/1.1/"
   xmlns:cc="http://creativecommons.org/ns#"
   xmlns:rdf="http://www.w3.org/1999/02/22-rdf-syntax-ns#"
   xmlns:svg="http://www.w3.org/2000/svg"
   xmlns="http://www.w3.org/2000/svg"
   xmlns:sodipodi="http://sodipodi.sourceforge.net/DTD/sodipodi-0.dtd"
   xmlns:inkscape="http://www.inkscape.org/namespaces/inkscape"
   id="Layer_1"
   data-name="Layer 1"
   viewBox="0 0 450 450"
   version="1.1"
   sodipodi:docname="blockHeight.svg"
   inkscape:version="0.92.3 (2405546, 2018-03-11)">
  <metadata
     id="metadata41">
    <rdf:RDF>
      <cc:Work
         rdf:about="">
        <dc:format>image/svg+xml</dc:format>
        <dc:type
           rdf:resource="http://purl.org/dc/dcmitype/StillImage" />
      </cc:Work>
    </rdf:RDF>
  </metadata>
  <sodipodi:namedview
     pagecolor="#ffffff"
     bordercolor="#666666"
     borderopacity="1"
     objecttolerance="10"
     gridtolerance="10"
     guidetolerance="10"
     inkscape:pageopacity="0"
     inkscape:pageshadow="2"
     inkscape:window-width="1869"
     inkscape:window-height="1053"
     id="namedview39"
     showgrid="false"
     inkscape:zoom="4.1955555"
     inkscape:cx="98.934624"
     inkscape:cy="95.357916"
     inkscape:window-x="51"
     inkscape:window-y="27"
     inkscape:window-maximized="1"
     inkscape:current-layer="Layer_1" />
  <defs
     id="defs4">
    <style
       id="style2">.cls-1{fill:#091440;}.cls-2{fill:#c4cbd2;}.cls-3{fill:none;}</style>
  </defs>
  <title
     id="title6">blockHeight</title>
  <polygon
     id="_Path_"
     data-name="&lt;Path&gt;"
     class="cls-1"
     points="225 338 425 338 425 337.5 425 313 225 313 225 338"
     style="fill:#527cc9;fill-opacity:1" />
  <g
     id="_Group_"
     data-name="&lt;Group&gt;"
     style="fill:#99c1e3;fill-opacity:1">
    <rect
       class="cls-2"
       x="225"
       y="338"
       width="200"
       height="87"
       id="rect9"
       style="fill:#99c1e3;fill-opacity:1" />
  </g>
  <g
     id="_Group_2"
     data-name="&lt;Group&gt;"
     style="fill:#99c1e3;fill-opacity:1">
    <rect
       class="cls-2"
       x="75"
       y="375"
       width="125"
       height="25"
       id="rect12"
       style="fill:#99c1e3;fill-opacity:1" />
  </g>
  <g
     id="_Group_3"
     data-name="&lt;Group&gt;"
     style="fill:#99c1e3;fill-opacity:1">
    <rect
       class="cls-2"
       x="138"
       y="313"
       width="62"
       height="25"
       id="rect15"
       style="fill:#99c1e3;fill-opacity:1" />
  </g>
  <polygon
     id="_Path_2"
     data-name="&lt;Path&gt;"
     class="cls-1"
     points="180.08 50 425 50 425 25 150.91 25 180.08 50"
     style="fill:#527cc9;fill-opacity:1" />
  <g
     id="_Group_4"
     data-name="&lt;Group&gt;"
     style="fill:#99c1e3;fill-opacity:1">
    <polygon
       class="cls-2"
       points="216.27 81.02 225 88.5 225 100 225 138 425 138 425 112.5 425 50 180.08 50 216.27 81.02"
       id="polygon19"
       style="fill:#99c1e3;fill-opacity:1" />
  </g>
  <rect
     id="_Path_3"
     data-name="&lt;Path&gt;"
     class="cls-1"
     x="225"
     y="169"
     width="200"
     height="25"
     style="fill:#527cc9;fill-opacity:1" />
  <g
     id="_Group_5"
     data-name="&lt;Group&gt;"
     style="fill:#99c1e3;fill-opacity:1">
    <polygon
       class="cls-2"
       points="225 256.25 225 281 425 281 425 256.25 425 194 225 194 225 256.25"
       id="polygon23"
       style="fill:#99c1e3;fill-opacity:1" />
  </g>
  <polygon
     id="_Path_4"
     data-name="&lt;Path&gt;"
     class="cls-1"
     points="200 400 75 400 75 375 200 375 200 338 138 338 138 313 200 313 200 281.25 200 275 138 275 138 250 200 250 200 213 138 213 138 188 200 188 200 150 75 150 75 125 200 125 200 100 112.5 25 25 100 25 193.75 25 256.25 25 281.25 25 312.5 25 337.5 25 337.5 25 425 200 425 200 400"
     style="fill:#527cc9;fill-opacity:1" />
  <g
     id="_Group_6"
     data-name="&lt;Group&gt;"
     style="fill:#99c1e3;fill-opacity:1">
    <polygon
       class="cls-2"
       points="138 275 200 275 200 256.25 200 250 138 250 138 275"
       id="polygon27"
       style="fill:#99c1e3;fill-opacity:1" />
  </g>
  <g
     id="_Group_7"
     data-name="&lt;Group&gt;"
     style="fill:#99c1e3;fill-opacity:1">
    <polygon
       class="cls-2"
       points="138 213 200 213 200 193.75 200 188 138 188 138 213"
       id="polygon30"
       style="fill:#99c1e3;fill-opacity:1" />
  </g>
  <g
     id="_Group_8"
     data-name="&lt;Group&gt;"
     style="fill:#99c1e3;fill-opacity:1">
    <rect
       class="cls-2"
       x="75"
       y="125"
       width="125"
       height="25"
       id="rect33"
       style="fill:#99c1e3;fill-opacity:1" />
  </g>
  <rect
     class="cls-3"
     width="450"
     height="450"
     id="rect36" />
</svg>
