<?xml version="1.0" encoding="UTF-8" standalone="no"?>
<svg
   xmlns:dc="http://purl.org/dc/elements/1.1/"
   xmlns:cc="http://creativecommons.org/ns#"
   xmlns:rdf="http://www.w3.org/1999/02/22-rdf-syntax-ns#"
   xmlns:svg="http://www.w3.org/2000/svg"
   xmlns="http://www.w3.org/2000/svg"
   xmlns:sodipodi="http://sodipodi.sourceforge.net/DTD/sodipodi-0.dtd"
   xmlns:inkscape="http://www.inkscape.org/namespaces/inkscape"
   id="Layer_1"
   data-name="Layer 1"
   viewBox="0 0 450 450"
   version="1.1"
   sodipodi:docname="blockrewardOpen.svg"
   inkscape:version="0.92.3 (2405546, 2018-03-11)">
  <metadata
     id="metadata34">
    <rdf:RDF>
      <cc:Work
         rdf:about="">
        <dc:format>image/svg+xml</dc:format>
        <dc:type
           rdf:resource="http://purl.org/dc/dcmitype/StillImage" />
      </cc:Work>
    </rdf:RDF>
  </metadata>
  <sodipodi:namedview
     pagecolor="#ffffff"
     bordercolor="#666666"
     borderopacity="1"
     objecttolerance="10"
     gridtolerance="10"
     guidetolerance="10"
     inkscape:pageopacity="0"
     inkscape:pageshadow="2"
     inkscape:window-width="1869"
     inkscape:window-height="1053"
     id="namedview32"
     showgrid="false"
     inkscape:zoom="2.0977778"
     inkscape:cx="13.842593"
     inkscape:cy="223.46605"
     inkscape:window-x="51"
     inkscape:window-y="27"
     inkscape:window-maximized="1"
     inkscape:current-layer="Layer_1" />
  <defs
     id="defs4">
    <style
       id="style2">.cls-1{fill:#18173f;}.cls-2{fill:#c4cbd2;}.cls-3{fill:none;}</style>
  </defs>
  <title
     id="title6">blockrewardOpen</title>
  <rect
     id="_Rectangle_"
     data-name="&lt;Rectangle&gt;"
     class="cls-1"
     x="75"
     y="225.32"
     width="299.99"
     height="199.35"
     style="fill:#527cc9;fill-opacity:1" />
  <g
     id="_Rectangle_2"
     data-name="&lt;Rectangle&gt;"
     style="fill:#99c1e3;fill-opacity:1">
    <rect
       class="cls-2"
       x="125"
       y="281.57"
       width="200.01"
       height="93.75"
       id="rect9"
       style="fill:#99c1e3;fill-opacity:1" />
  </g>
  <path
     id="_Path_"
     data-name="&lt;Path&gt;"
     class="cls-1"
     d="M303.13,250.32a78.13,78.13,0,0,1-156.26,0"
     style="fill:#527cc9;fill-opacity:1" />
  <g
     id="_Group_"
     data-name="&lt;Group&gt;"
     style="fill:#99c1e3;fill-opacity:1">
    <circle
       class="cls-2"
       cx="225"
       cy="250.32"
       r="12.5"
       id="circle13"
       style="fill:#99c1e3;fill-opacity:1" />
  </g>
  <polygon
     class="cls-1"
     points="100 50.32 212.38 50.32 212.38 25.32 75 25.32 75 56.83 100 81.82 100 50.32"
     id="polygon16"
     style="fill:#527cc9;fill-opacity:1" />
  <polygon
     class="cls-1"
     points="75 92.53 75 225.32 100 225.32 100 117.52 75 92.53"
     id="polygon18"
     style="fill:#527cc9;fill-opacity:1" />
  <polygon
     class="cls-1"
     points="237.63 25.32 237.63 50.32 350 50.32 350 81.83 375 56.83 375 25.32 237.63 25.32"
     id="polygon20"
     style="fill:#527cc9;fill-opacity:1" />
  <polygon
     class="cls-1"
     points="350 225.32 375 225.32 375 92.53 350 117.53 350 225.32"
     id="polygon22"
     style="fill:#527cc9;fill-opacity:1" />
  <g
     id="_Group_2"
     data-name="&lt;Group&gt;"
     style="fill:#99c1e3;fill-opacity:1">
    <polygon
       class="cls-2"
       points="237.5 287.82 212.5 287.82 218.75 250.32 231.25 250.32 237.5 287.82"
       id="polygon24"
       style="fill:#99c1e3;fill-opacity:1" />
  </g>
  <path
     class="cls-2"
     d="M310.53,157l-17.85-17.85L350,81.83V50.32H237.63v66H212.38v-66H100v31.5l57.33,57.33L139.48,157,100,117.52v107.8h51a78.12,78.12,0,0,1,148,0h51V117.53Z"
     id="path27"
     style="fill:#99c1e3;fill-opacity:1" />
  <rect
     class="cls-3"
     width="450"
     height="450"
     id="rect29" />
</svg>
