<?xml version="1.0" encoding="UTF-8" standalone="no"?>
<svg
   xmlns:dc="http://purl.org/dc/elements/1.1/"
   xmlns:cc="http://creativecommons.org/ns#"
   xmlns:rdf="http://www.w3.org/1999/02/22-rdf-syntax-ns#"
   xmlns:svg="http://www.w3.org/2000/svg"
   xmlns="http://www.w3.org/2000/svg"
   xmlns:sodipodi="http://sodipodi.sourceforge.net/DTD/sodipodi-0.dtd"
   xmlns:inkscape="http://www.inkscape.org/namespaces/inkscape"
   id="Layer_1"
   data-name="Layer 1"
   viewBox="0 0 450 450"
   version="1.1"
   sodipodi:docname="miningPow.svg"
   inkscape:version="0.92.3 (2405546, 2018-03-11)">
  <metadata
     id="metadata18">
    <rdf:RDF>
      <cc:Work
         rdf:about="">
        <dc:format>image/svg+xml</dc:format>
        <dc:type
           rdf:resource="http://purl.org/dc/dcmitype/StillImage" />
      </cc:Work>
    </rdf:RDF>
  </metadata>
  <sodipodi:namedview
     pagecolor="#ffffff"
     bordercolor="#666666"
     borderopacity="1"
     objecttolerance="10"
     gridtolerance="10"
     guidetolerance="10"
     inkscape:pageopacity="0"
     inkscape:pageshadow="2"
     inkscape:window-width="1869"
     inkscape:window-height="1053"
     id="namedview16"
     showgrid="false"
     inkscape:zoom="0.52444444"
     inkscape:cx="-238.34746"
     inkscape:cy="225"
     inkscape:window-x="51"
     inkscape:window-y="27"
     inkscape:window-maximized="1"
     inkscape:current-layer="Layer_1" />
  <defs
     id="defs4">
    <style
       id="style2">.cls-1{fill:#132f4b;}.cls-2{fill:#c4cbd2;}.cls-3{fill:#091440;}.cls-4{fill:none;}</style>
  </defs>
  <title
     id="title6">miningPow</title>
  <path
     id="_Path_"
     data-name="&lt;Path&gt;"
     class="cls-1"
     d="M114.89,97.12l0,0A25,25,0,0,0,81.08,131,200.53,200.53,0,0,1,114.89,97.12Z"
     style="fill:#527cc9;fill-opacity:1" />
  <g
     id="_Group_"
     data-name="&lt;Group&gt;"
     style="fill:#99c1e3;fill-opacity:1">
    <path
       class="cls-2"
       d="M111.93,181l17.68,17.68,8.83-8.83,35.35-35.35,8.86-8.85L165,127.92l8.6-8.82L238,54.45h0A197.4,197.4,0,0,0,114.93,97.09l0,0A200.53,200.53,0,0,0,81.08,131l0,0A199.53,199.53,0,0,0,38.42,254.45l64.65-64.64Z"
       id="path9"
       style="fill:#99c1e3;fill-opacity:1" />
  </g>
  <path
     id="_Path_2"
     data-name="&lt;Path&gt;"
     class="cls-3"
     d="M138.44,189.8,332.89,384.23a25,25,0,0,0,35.35-35.36L173.8,154.45Z"
     style="fill:#527cc9;fill-opacity:1" />
  <rect
     class="cls-4"
     x="-8"
     y="8"
     width="450"
     height="450"
     id="rect13" />
</svg>
