<svg xmlns="http://www.w3.org/2000/svg" width="169.288" height="145" viewBox="0 0 169.288 145"><defs><style>.a{fill:#69d5f7;}.b{fill:#2971ff;}.c{fill:#a1c0ff;}.d,.e{fill:none;}.e{stroke:#2971ff;stroke-miterlimit:10;stroke-width:3.2px;}.f{fill:#fff;}</style></defs><g transform="translate(-164.3 -37.25)"><rect class="a" width="98.86" height="23.04" rx="10.03" transform="translate(275.965 60.307) rotate(180)"/><rect class="b" width="124.462" height="124.627" transform="translate(164.3 53.164)"/><path class="a" d="M262.419,88.227l12.745-12.736a1.03,1.03,0,1,0-1.455-1.455L260.964,86.781a46.425,46.425,0,0,0-64.071,0L184.131,74.036a1.03,1.03,0,0,0-1.455,1.455l12.745,12.736a46.417,46.417,0,0,0-.208,64.313l-12.537,12.529a1.03,1.03,0,1,0,1.455,1.455L196.659,154a46.426,46.426,0,0,0,64.521,0l12.528,12.528a1.039,1.039,0,0,0,.727.3,1.022,1.022,0,0,0,.727-.3,1.039,1.039,0,0,0,0-1.455l-12.529-12.528a46.425,46.425,0,0,0-.216-64.313ZM228.92,76a44.287,44.287,0,0,1,30.59,12.234l-9.16,9.16a31.3,31.3,0,0,0-42.858,0l-9.16-9.16A44.3,44.3,0,0,1,228.92,76Zm0,58.426a14.148,14.148,0,1,1,14.148-14.148A14.148,14.148,0,0,1,228.92,134.428Zm10.693-26.286a16.1,16.1,0,0,0-21.377,0l-9.29-9.29a29.239,29.239,0,0,1,39.949,0Zm-22.832,1.446a16.113,16.113,0,0,0,0,21.386l-9.29,9.282a29.239,29.239,0,0,1,0-39.949Zm1.455,22.832a16.1,16.1,0,0,0,21.377,0l9.282,9.29a29.239,29.239,0,0,1-39.949,0Zm22.823-1.446a16.113,16.113,0,0,0,0-21.386l9.29-9.282a29.239,29.239,0,0,1,0,39.949ZM184.434,120.5a44.348,44.348,0,0,1,12.433-30.815l9.169,9.169a31.3,31.3,0,0,0,0,42.858l-9.377,9.377A44.348,44.348,0,0,1,184.434,120.5Zm44.486,44.486a44.313,44.313,0,0,1-30.806-12.442l9.377-9.377a31.3,31.3,0,0,0,42.858,0l9.377,9.377a44.313,44.313,0,0,1-30.806,12.442ZM251.8,141.709a31.282,31.282,0,0,0,0-42.858l9.169-9.169a44.391,44.391,0,0,1,.208,61.4Z" transform="translate(-2.419 -4.725)"/><circle class="a" cx="1.117" cy="1.117" r="1.117" transform="translate(172.283 61.173)"/><path class="c" d="M297.3,67.114A1.117,1.117,0,1,0,296.18,66,1.117,1.117,0,0,0,297.3,67.114Z" transform="translate(-17.563 -3.707)"/><circle class="a" cx="1.117" cy="1.117" r="1.117" transform="translate(172.283 167.54)"/><circle class="a" cx="1.117" cy="1.117" r="1.117" transform="translate(278.66 167.54)"/><rect class="a" width="61.361" height="61.361" rx="30.68" transform="translate(272.227 37.25)"/><rect class="b" width="7.663" height="6.234" transform="translate(183.972 43.371)"/><rect class="b" width="4.416" height="5.611" transform="translate(185.591 40.835)"/><rect class="b" width="2.641" height="7.663" transform="translate(215.885 41.934)"/><rect class="b" width="2.641" height="7.663" transform="translate(220.384 41.934)"/><rect class="b" width="7.905" height="7.905" rx="3.952" transform="translate(262.064 41.692)"/><rect class="b" width="7.905" height="7.905" rx="3.952" transform="translate(251.116 41.7)"/><rect class="b" width="8.918" height="4.459" transform="translate(280.241 182.25) rotate(180)"/><rect class="b" width="8.918" height="4.459" transform="translate(182.023 182.25) rotate(180)"/><rect class="d" width="42.529" height="42.529" transform="translate(282.729 47.311)"/><g transform="translate(288.596 52.613)"><line class="e" x1="29.088" transform="translate(0 15.174)"/><line class="e" x1="29.088" transform="translate(0 3.162)"/><line class="e" x1="29.088" transform="translate(0 27.386)"/><line class="e" x1="29.088" transform="translate(0 21.28)"/><line class="e" x1="29.088" transform="translate(0 8.917)"/><path class="f" d="M320.155,84.577V62.972l-5.222,7.766H306.95V68.069h6.557l9.318-13.839V75.835l5.23-7.766h7.983v2.669h-6.565Z" transform="translate(-306.95 -54.23)"/></g></g></svg>