<svg xmlns="http://www.w3.org/2000/svg" width="169.288" height="145" viewBox="0 0 169.288 145"><defs><style>.a,.g{fill:#69d5f7;}.b{fill:#2971ff;}.c{fill:#a1c0ff;}.d{fill:none;}.e{fill:#fff;}.f,.g{stroke:none;}</style></defs><g transform="translate(-164.3 -37.25)"><rect class="a" width="98.961" height="23.063" rx="10.03" transform="translate(276.079 60.33) rotate(180)"/><rect class="b" width="124.589" height="124.606" transform="translate(164.3 53.18)"/><path class="a" d="M262.5,88.242l12.758-12.749a1.031,1.031,0,1,0-1.456-1.456L261.045,86.795a46.473,46.473,0,0,0-64.136,0L184.133,74.037a1.031,1.031,0,0,0-1.456,1.456l12.758,12.749a46.464,46.464,0,0,0-.208,64.379l-12.55,12.541a1.031,1.031,0,1,0,1.456,1.456l12.541-12.541a46.473,46.473,0,0,0,64.587,0L273.8,166.619a1.04,1.04,0,0,0,.728.3,1.023,1.023,0,0,0,.728-.3,1.04,1.04,0,0,0,0-1.456l-12.541-12.541a46.473,46.473,0,0,0-.217-64.379ZM228.968,76a44.332,44.332,0,0,1,30.621,12.247l-9.17,9.17a31.332,31.332,0,0,0-42.9,0l-9.17-9.17A44.341,44.341,0,0,1,228.968,76Zm0,58.485a14.162,14.162,0,1,1,14.162-14.162A14.162,14.162,0,0,1,228.968,134.49Zm10.7-26.313a16.112,16.112,0,0,0-21.4,0l-9.3-9.3a29.269,29.269,0,0,1,39.99,0Zm-22.855,1.447a16.129,16.129,0,0,0,0,21.408l-9.3,9.291a29.269,29.269,0,0,1,0-39.99Zm1.456,22.855a16.112,16.112,0,0,0,21.4,0l9.291,9.3a29.269,29.269,0,0,1-39.99,0Zm22.846-1.447a16.129,16.129,0,0,0,0-21.408l9.3-9.291a29.269,29.269,0,0,1,0,39.99Zm-56.683-10.487A44.393,44.393,0,0,1,196.882,89.7l9.178,9.178a31.331,31.331,0,0,0,0,42.9l-9.386,9.386A44.393,44.393,0,0,1,184.436,120.544Zm44.531,44.531a44.358,44.358,0,0,1-30.837-12.455l9.386-9.386a31.332,31.332,0,0,0,42.9,0l9.386,9.386a44.358,44.358,0,0,1-30.837,12.455Zm22.907-23.3a31.314,31.314,0,0,0,0-42.9l9.178-9.178a44.436,44.436,0,0,1,.208,61.467Z" transform="translate(-2.403 -4.84)"/><circle class="a" cx="1.118" cy="1.118" r="1.118" transform="translate(172.291 61.197)"/><path class="c" d="M297.3,67.116A1.118,1.118,0,1,0,296.18,66,1.118,1.118,0,0,0,297.3,67.116Z" transform="translate(-17.565 -3.683)"/><circle class="a" cx="1.118" cy="1.118" r="1.118" transform="translate(172.291 167.525)"/><circle class="a" cx="1.118" cy="1.118" r="1.118" transform="translate(278.658 167.525)"/><rect class="a" width="61.424" height="61.424" rx="30.712" transform="translate(272.164 37.25)"/><rect class="b" width="7.67" height="6.24" transform="translate(183.992 43.378)"/><rect class="b" width="4.42" height="5.616" transform="translate(185.612 40.838)"/><rect class="b" width="2.643" height="7.67" transform="translate(215.884 41.939)"/><rect class="b" width="2.643" height="7.67" transform="translate(220.383 41.939)"/><rect class="b" width="7.913" height="7.913" rx="3.957" transform="translate(262.059 41.696)"/><rect class="b" width="7.913" height="7.913" rx="3.957" transform="translate(251.112 41.705)"/><rect class="b" width="8.927" height="4.464" transform="translate(280.244 182.25) rotate(180)"/><rect class="b" width="8.927" height="4.464" transform="translate(182.042 182.25) rotate(180)"/><rect class="d" width="42.573" height="42.573" transform="translate(282.678 47.321)"/><rect class="b" width="37.84" height="4.862" rx="2.431" transform="translate(292.307 53.191) rotate(45)"/><g class="e" transform="translate(-17.871 -1.233)"><path class="f" d="M 304.4966430664062 73.08628082275391 L 304.4999694824219 71.87553405761719 C 304.5071411132812 69.26356506347656 305.0239562988281 66.72991180419922 306.0359802246094 64.34496307373047 C 307.0136413574219 62.04106521606445 308.4103698730469 59.97147369384766 310.1873474121094 58.19366455078125 C 311.96435546875 56.41584396362305 314.0332946777344 55.01817321777344 316.3367309570312 54.03946304321289 C 318.7212219238281 53.02631378173828 321.254638671875 52.50837326049805 323.8665771484375 52.50000381469727 L 325.0758666992188 52.49613189697266 L 324.2224426269531 53.35287475585938 L 317.8394470214844 59.76057434082031 L 319.1524658203125 61.0804443359375 L 319.5041809082031 61.43399429321289 L 319.1515502929688 61.78662490844727 L 314.1333312988281 66.80487060546875 L 313.77978515625 67.15842437744141 L 313.4262390136719 66.80488586425781 L 312.1067810058594 65.48545837402344 L 305.3533020019531 72.23067474365234 L 304.4966430664062 73.08628082275391 Z"/><path class="g" d="M 323.8681945800781 53 C 313.4580383300781 53.03334045410156 305.028564453125 61.46671295166016 304.9999694824219 71.87690734863281 L 312.1069946289062 64.778564453125 L 313.77978515625 66.45132446289062 L 318.7980041503906 61.43307495117188 L 317.1339416503906 59.76033020019531 L 323.8681945800781 53 M 326.2835388183594 51.99226379394531 L 324.57666015625 53.70574188232422 L 318.5449523925781 59.76080322265625 L 319.5069274902344 60.72780609130859 L 320.2103576660156 61.43490219116211 L 319.505126953125 62.14017486572266 L 314.4868774414062 67.15842437744141 L 313.77978515625 67.86553192138672 L 313.0726928710938 67.15843200683594 L 312.1065673828125 66.19233703613281 L 305.7066345214844 72.58444213867188 L 303.9933166503906 74.29566955566406 L 303.9999694824219 71.87415313720703 C 304.00732421875 69.19518280029297 304.5375061035156 66.59628295898438 305.5757141113281 64.14964294433594 C 306.5785522460938 61.78640365600586 308.0111694335938 59.66359710693359 309.833740234375 57.84019470214844 C 311.6562805175781 56.01678466796875 313.7784423828125 54.58320617675781 316.1412048339844 53.57928466796875 C 318.5873718261719 52.53993225097656 321.18603515625 52.00858306884766 323.864990234375 52.00001525878906 L 326.2835388183594 51.99226379394531 Z"/></g></g></svg>