<?xml version="1.0" encoding="UTF-8" standalone="no"?>
<svg
   xmlns:dc="http://purl.org/dc/elements/1.1/"
   xmlns:cc="http://creativecommons.org/ns#"
   xmlns:rdf="http://www.w3.org/1999/02/22-rdf-syntax-ns#"
   xmlns:svg="http://www.w3.org/2000/svg"
   xmlns="http://www.w3.org/2000/svg"
   id="svg8"
   xml:space="preserve"
   enable-background="new 0 0 1000 1000"
   viewBox="0 0 1000 1000"
   y="0px"
   x="0px"
   version="1.1"><defs
   id="defs12" />
<path
   style="fill:#8997A5;fill-opacity:1"
   d="M 932.8,850 731.8,649 C 788.2,581.4 822.1,494.5 822.1,399.5 822.2,184.2 647.9,10 432.7,10 217.4,10 43.2,184.2 43.2,399.5 43.2,614.7 217.4,789 432.7,789 c 61.1,0 119,-14.1 170.5,-39.1 3,4.7 6.6,9.1 10.7,13.2 l 203,203 c 32,32 84,32 116,0 C 964.8,934 964.8,882 932.8,850 Z M 125.2,399.5 C 125.2,229.7 262.9,92 432.7,92 602.5,92 740.2,229.7 740.2,399.5 740.2,569.3 602.4,707 432.7,707 262.9,707 125.2,569.3 125.2,399.5 Z"
   id="path4" />
</svg>